<svg width="40" height="40" viewBox="0 0 40 40" fill="none" xmlns="http://www.w3.org/2000/svg">
<path d="M16.3202 39.6974C17.4401 40.3573 18.32 39.9174 18.32 38.5775V22.9985C18.32 21.6586 17.4201 20.3187 16.3202 19.6587L3.42101 11.6392C2.30108 11.1993 1.42114 11.6392 1.42114 12.7592V28.3381C1.42114 29.678 2.32108 31.018 3.42101 31.6779L16.3202 39.6974ZM5.42088 6.73956C4.30095 7.39952 4.30095 8.29946 5.42088 8.95941L18.12 16.9789C19.24 17.6388 20.7999 17.6388 21.8998 17.1989L34.599 10.7393C35.7189 10.0793 35.7189 9.1794 34.599 8.51944L21.2198 0.499972C20.3199 -0.159984 18.54 -0.159984 17.4401 0.499972L5.42088 6.73956ZM21.8998 38.5775C21.8998 39.9174 22.7997 40.3573 23.8997 39.6974L36.5988 33.2378C37.7188 32.5779 38.5987 31.2379 38.5987 29.898V14.2991C38.5987 12.9592 37.6987 12.5192 36.5988 13.1791L23.8997 19.6387C22.7797 20.2987 21.8998 21.6386 21.8998 22.9785V38.5775Z" fill="white"/>
</svg>
