<svg width="1512" height="434" viewBox="0 0 1512 434" fill="none" xmlns="http://www.w3.org/2000/svg">
<mask id="mask0_323_472" style="mask-type:alpha" maskUnits="userSpaceOnUse" x="0" y="0" width="1512" height="434">
<rect width="1512" height="434" fill="url(#paint0_radial_323_472)"/>
</mask>
<g mask="url(#mask0_323_472)">
<path fill-rule="evenodd" clip-rule="evenodd" d="M894 79V0H893V79H756V0H755V79H618V0H617V79H480V0H479V79H342V0H341V79H204L204 0H203L203 79H0V80H203L203 217H0V218H203L203 355H0V356H203L203 434H204L204 356H341V434H342V356H479V434H480V356H617V434H618V356H755V434H756V356H893V434H894V356H1031V434H1032V356H1169V434H1170V356H1307V434H1308V356H1512V355H1308V218H1512V217H1308L1308 80H1512V79H1308V0H1307V79H1170V0H1169V79H1032V0H1031V79H894ZM1031 80H894L894 217H1031L1031 80ZM1031 218H894V355H1031V218ZM1032 355V218H1169V355H1032ZM1032 217L1032 80H1169L1169 217H1032ZM204 217L204 80H341L341 217H204ZM204 355L204 218H341L341 355H204ZM618 355H755V218H618V355ZM618 217H755L755 80H618L618 217ZM617 80L617 217H480L480 80H617ZM617 218V355H480L480 218H617ZM1307 355H1170V218H1307V355ZM1307 217H1170L1170 80H1307L1307 217ZM342 355H479L479 218H342L342 355ZM342 217H479L479 80H342L342 217ZM756 80L756 217H893L893 80H756ZM756 218V355H893V218H756Z" fill="black" fill-opacity="0.16"/>
</g>
<defs>
<radialGradient id="paint0_radial_323_472" cx="0" cy="0" r="1" gradientUnits="userSpaceOnUse" gradientTransform="translate(756 217) scale(1515 242.652)">
<stop offset="0.375" stop-color="#333333"/>
<stop offset="1" stop-color="#333333" stop-opacity="0"/>
</radialGradient>
</defs>
</svg>
