<svg width="88" height="32" viewBox="0 0 88 32" fill="none" xmlns="http://www.w3.org/2000/svg">
<g clip-path="url(#clip0_513_60)">
<path d="M86.5841 16.9877C86.6263 16.9385 86.6796 16.8993 86.7398 16.8731C86.8 16.847 86.8656 16.8345 86.9316 16.8368C86.9975 16.8391 87.062 16.856 87.1202 16.8863C87.1784 16.9165 87.2286 16.9593 87.2671 17.0113L87.9095 17.8643C87.9704 17.9438 88.0033 18.0403 88.0033 18.1394C88.0033 18.2385 87.9704 18.335 87.9095 18.4145C86.7933 19.8204 84.839 21.1659 82.4797 21.297C80.6171 21.3991 79.0812 20.7152 78.2457 19.4208C78.2091 19.3615 78.158 19.3121 78.0968 19.2768C78.0357 19.2416 77.9665 19.2216 77.8954 19.2187C77.8243 19.2159 77.7536 19.2302 77.6897 19.2604C77.6257 19.2907 77.5705 19.3359 77.529 19.3919C76.537 20.6851 75.3371 21.6952 74.086 21.7647C71.859 21.8878 71.23 20.4375 71.7807 17.2406C71.7952 17.1694 71.7911 17.0958 71.7688 17.0266C71.7466 16.9573 71.7068 16.8945 71.6531 16.844C71.5994 16.7934 71.5336 16.7568 71.4616 16.7372C71.3896 16.7177 71.3137 16.716 71.2408 16.7323C70.7691 16.8569 70.2786 16.9013 69.7912 16.8633C69.6898 16.8545 69.5884 16.88 69.5041 16.9354C69.4198 16.9907 69.3577 17.0726 69.3283 17.1672C68.5036 19.7955 66.5425 22.2403 64.0038 22.3818C62.3841 22.4722 59.9614 21.5708 60.2044 17.804C60.2117 17.7346 60.2016 17.6646 60.175 17.5998C60.1483 17.535 60.106 17.4775 60.0515 17.4321C59.997 17.3866 59.932 17.3547 59.862 17.3389C59.792 17.3231 59.7192 17.324 59.6497 17.3415C59.1262 17.4994 58.5764 17.5585 58.03 17.5158C57.9288 17.5071 57.8276 17.5326 57.7435 17.588C57.6594 17.6434 57.5976 17.7252 57.5684 17.8197C56.7438 20.448 54.7827 22.8928 52.2439 23.0343C50.6242 23.1247 48.2016 22.2233 48.4445 18.4565C48.4518 18.3871 48.4417 18.317 48.4151 18.2523C48.3885 18.1875 48.3461 18.13 48.2916 18.0845C48.2371 18.0391 48.1721 18.0071 48.1021 17.9914C48.0322 17.9756 47.9593 17.9765 47.8898 17.994C47.3664 18.1524 46.8165 18.2116 46.2701 18.1682C46.1689 18.1596 46.0677 18.1851 45.9836 18.2404C45.8995 18.2958 45.8377 18.3777 45.8085 18.4722C44.9852 21.1096 43.0241 23.5518 40.4908 23.6933C39.3381 23.7575 37.7779 23.3186 37.0625 21.7044C37.0337 21.6341 36.9859 21.5727 36.9241 21.5266C36.8623 21.4805 36.7889 21.4514 36.7115 21.4424C36.6341 21.4335 36.5557 21.4449 36.4844 21.4755C36.4132 21.5062 36.3518 21.5549 36.3067 21.6166C35.2971 22.9439 34.077 23.992 32.7975 24.0641C31.491 24.1374 30.773 23.6278 30.4652 22.7198C30.4419 22.6477 30.399 22.5831 30.341 22.5327C30.283 22.4823 30.2121 22.4479 30.1357 22.4333C30.0593 22.4187 29.9803 22.4243 29.907 22.4496C29.8336 22.4749 29.7686 22.5189 29.7189 22.577C28.8267 23.595 27.8104 24.3418 26.7819 24.3982C25.1974 24.4873 24.285 23.35 24.2094 21.9651C24.123 20.3536 24.8411 18.4656 25.6428 16.406C25.6695 16.3409 25.68 16.2706 25.6735 16.2008C25.6669 16.1309 25.6435 16.0636 25.6051 16.0043C25.5667 15.9449 25.5144 15.8952 25.4525 15.8591C25.3905 15.8231 25.3207 15.8017 25.2487 15.7968C24.7507 15.778 24.2546 15.7259 23.764 15.6409C23.6545 15.6216 23.5415 15.6433 23.4479 15.7017C23.3542 15.76 23.2868 15.8507 23.2592 15.9553C22.3144 19.2426 20.8581 22.4643 19.6326 24.3693C19.6019 24.4196 19.5607 24.4631 19.5116 24.497C19.4625 24.5309 19.4067 24.5543 19.3476 24.566C19.2886 24.5776 19.2278 24.577 19.169 24.5644C19.1102 24.5517 19.0548 24.5272 19.0063 24.4925L18.071 23.8243C17.9778 23.7556 17.9143 23.6557 17.8929 23.544C17.8714 23.4324 17.8935 23.317 17.9549 23.2203C19.7257 20.4689 21.2981 16.1558 21.8393 12.9668C21.8543 12.8702 21.9024 12.7814 21.9759 12.7148C22.0494 12.6482 22.144 12.6077 22.2443 12.5999L23.4887 12.5305C23.5567 12.5285 23.6243 12.5414 23.6865 12.5682C23.7487 12.595 23.8039 12.6351 23.8479 12.6854C23.892 12.7357 23.9239 12.7951 23.9411 12.859C23.9584 12.9229 23.9606 12.9897 23.9476 13.0546V13.0847C23.9358 13.1434 23.9363 13.2038 23.9491 13.2623C23.9619 13.3208 23.9868 13.3762 24.0222 13.4251C24.0577 13.4741 24.1029 13.5156 24.1552 13.5471C24.2076 13.5787 24.2659 13.5996 24.3268 13.6088C25.443 13.7581 27.1112 13.7765 28.2409 13.7332C28.3158 13.7326 28.3896 13.7498 28.4559 13.7834C28.5223 13.817 28.5791 13.866 28.6214 13.9259C28.6636 13.9858 28.6901 14.0549 28.6983 14.1271C28.7066 14.1993 28.6965 14.2724 28.6688 14.3399C27.7604 16.6851 26.5444 19.9344 26.6132 21.221C26.6456 21.8014 26.9088 22.1197 27.3744 22.0935C28.2639 22.0438 29.6311 20.3091 30.6677 18.3765C30.6869 18.342 30.701 18.3049 30.7095 18.2665C31.0591 16.7532 31.5774 15.0657 32.1011 13.3611L32.1335 13.255C32.1583 13.1695 32.2097 13.0935 32.2808 13.0374C32.3518 12.9814 32.4389 12.948 32.5303 12.9419L34.0149 12.8593C34.088 12.8574 34.1604 12.8726 34.2261 12.9036C34.2918 12.9346 34.3489 12.9805 34.3924 13.0375C34.436 13.0944 34.4648 13.1607 34.4764 13.2307C34.4879 13.3007 34.482 13.3724 34.459 13.4398L34.2295 14.1682C32.9176 18.3412 31.8163 21.8459 33.2996 21.7673C34.2687 21.7136 35.6427 20.1165 36.825 17.8433C36.8443 17.8055 36.8584 17.7654 36.8668 17.7241C36.9262 17.4267 37.0018 17.1161 37.0868 16.7912C37.7765 14.1197 38.5566 11.4732 39.3395 8.82266C39.5806 8.00511 39.8213 7.18668 40.0616 6.36737C40.0858 6.27951 40.138 6.20132 40.2107 6.14392C40.2834 6.08653 40.3729 6.05285 40.4665 6.04769L41.997 5.96253C42.0706 5.96051 42.1435 5.97585 42.2096 6.00723C42.2757 6.0386 42.333 6.08508 42.3766 6.14267C42.4201 6.20026 42.4486 6.26724 42.4596 6.33787C42.4706 6.4085 42.4638 6.48067 42.4397 6.54818C41.8283 8.40864 41.1899 10.391 40.5825 12.2986C40.5522 12.3841 40.5501 12.4766 40.5766 12.5633C40.603 12.65 40.6568 12.7265 40.7302 12.7821C40.8037 12.8376 40.8932 12.8695 40.9863 12.8733C41.0794 12.8771 41.1713 12.8525 41.2493 12.803C41.8318 12.4012 42.5146 12.1583 43.2266 12.0994C44.9488 12.0038 46.1203 13.3795 46.2323 15.4509C46.2323 15.5596 46.2458 15.6776 46.2485 15.7981C46.2499 15.9059 46.2917 16.0095 46.3663 16.0894C46.4409 16.1693 46.5431 16.2199 46.6535 16.2318C47.0636 16.2701 47.4775 16.2261 47.8695 16.1026C48.2614 15.9791 48.623 15.7787 48.9317 15.5138C48.998 15.4559 49.045 15.3802 49.0667 15.2963C49.7011 12.9052 50.4016 10.5311 51.102 8.15447C51.3423 7.34128 51.5816 6.52722 51.8201 5.71228C51.8443 5.62442 51.8965 5.54623 51.9692 5.48883C52.0419 5.43143 52.1314 5.39776 52.225 5.39259L53.7542 5.30743C53.8278 5.30551 53.9007 5.32089 53.9668 5.35226C54.0329 5.38364 54.0903 5.43008 54.1339 5.48761C54.1775 5.54515 54.2061 5.61207 54.2173 5.68268C54.2286 5.75328 54.222 5.82547 54.1982 5.89308C53.5868 7.75355 52.9484 9.73586 52.3411 11.6435C52.3107 11.729 52.3086 11.8215 52.3351 11.9082C52.3616 11.9949 52.4153 12.0714 52.4888 12.127C52.5622 12.1825 52.6518 12.2144 52.7448 12.2182C52.8379 12.222 52.9298 12.1974 53.0078 12.1479C53.5904 11.7462 54.2731 11.5033 54.9851 11.4443C56.7073 11.3487 57.8789 12.7244 57.9922 14.7958C57.9922 14.9045 58.0044 15.0225 58.0084 15.143C58.0097 15.2508 58.0516 15.3544 58.1262 15.4343C58.2008 15.5142 58.3029 15.5648 58.4133 15.5767C58.8235 15.6149 59.2374 15.5709 59.6293 15.4474C60.0212 15.3239 60.3828 15.1235 60.6916 14.8587C60.7578 14.8007 60.8047 14.7251 60.8266 14.6412C61.4609 12.2501 62.1614 9.87605 62.8619 7.49937C63.1022 6.68531 63.3415 5.87081 63.58 5.05587C63.6042 4.96802 63.6564 4.88983 63.7291 4.83243C63.8018 4.77503 63.8913 4.74135 63.9849 4.73619L65.5154 4.65103C65.589 4.64901 65.6619 4.66435 65.728 4.69573C65.7941 4.72711 65.8514 4.77358 65.895 4.83117C65.9385 4.88876 65.967 4.95575 65.978 5.02638C65.989 5.09701 65.9822 5.16917 65.9581 5.23668C65.3467 7.09715 64.7083 9.07946 64.1023 10.9871C64.0719 11.0726 64.0698 11.1651 64.0963 11.2518C64.1228 11.3385 64.1765 11.415 64.25 11.4706C64.3235 11.5261 64.413 11.558 64.5061 11.5618C64.5991 11.5656 64.6911 11.541 64.769 11.4915C65.3515 11.0897 66.0343 10.8467 66.7463 10.7879C68.4685 10.6923 69.6401 12.068 69.7535 14.1394C69.7535 14.2495 69.7656 14.3661 69.7683 14.4866C69.7699 14.5943 69.8119 14.6978 69.8864 14.7776C69.961 14.8575 70.0629 14.9082 70.1732 14.9203C70.5695 14.9572 70.9694 14.9175 71.3498 14.8035C71.7302 14.6895 72.0835 14.5034 72.3894 14.256C72.4596 14.197 72.5091 14.1182 72.5311 14.0307C73.2532 11.3277 74.3141 7.7863 75.3371 4.39685C75.3618 4.31087 75.4134 4.23445 75.4847 4.17813C75.556 4.1218 75.6436 4.08836 75.7353 4.08241L77.251 3.99725C77.3238 3.99525 77.3961 4.01027 77.4617 4.04104C77.5273 4.07182 77.5843 4.11744 77.628 4.17407C77.6716 4.2307 77.7006 4.29668 77.7125 4.36646C77.7244 4.43623 77.7189 4.50777 77.6964 4.57503C76.2887 9.11352 75.1401 13.0834 74.5071 15.4247C73.6662 18.6019 73.6325 19.5177 74.5894 19.464C75.3992 19.4195 76.479 18.3123 77.4953 16.6405C77.5352 16.5749 77.5574 16.5005 77.5601 16.4244C77.6951 13.0768 79.8073 10.032 82.9508 9.85771C85.0563 9.7411 86.2089 11.2845 86.2912 12.803C86.4478 15.7025 83.496 17.5551 80.6347 17.3887C80.5567 17.3857 80.4792 17.4024 80.4097 17.4369C80.3403 17.4715 80.2811 17.5228 80.238 17.586C80.1949 17.6492 80.1693 17.7221 80.1636 17.7976C80.1579 17.8732 80.1723 17.949 80.2055 18.0176C80.6104 18.8469 81.4472 19.3107 82.8833 19.2295C84.2492 19.1535 85.6812 18.0084 86.5841 16.9877ZM39.2868 17.8014C38.612 20.444 39.4326 21.4778 40.5015 21.4188C42.2562 21.3218 43.9446 18.2075 43.815 15.8046C43.757 14.7565 43.1254 14.2088 42.3871 14.2495C41.1548 14.3176 39.8308 15.6933 39.2882 17.8014H39.2868ZM51.0427 17.1463C50.3678 19.7876 51.1884 20.8227 52.2574 20.7637C54.012 20.6667 55.7018 17.5524 55.5722 15.1496C55.5155 14.1014 54.8825 13.5537 54.1443 13.5944C52.9079 13.6638 51.5866 15.0395 51.0427 17.1476V17.1463ZM62.7985 16.4912C62.1236 19.1338 62.9443 20.1676 64.0132 20.1086C65.7678 20.0117 67.4576 16.8973 67.3281 14.4945C67.2714 13.4463 66.6384 12.8987 65.9001 12.9393C64.6665 13.01 63.3424 14.3857 62.7998 16.4938L62.7985 16.4912ZM84.0535 13.0375C84.0427 12.3458 83.604 11.844 82.8941 11.8833C81.4971 11.9619 80.4052 13.4293 80.0597 15.2085C80.045 15.2731 80.0454 15.34 80.0608 15.4044C80.0761 15.4688 80.1061 15.5291 80.1486 15.5808C80.191 15.6325 80.2448 15.6744 80.306 15.7034C80.3672 15.7324 80.4343 15.7477 80.5024 15.7483C82.3043 15.7077 84.1115 14.5587 84.0548 13.0402L84.0535 13.0375ZM18.5852 14.3254C18.403 8.96154 14.8061 5.41618 9.4991 5.60484C7.21947 5.70573 4.61051 6.54425 2.64806 8.04572C2.55842 8.11565 2.49813 8.21491 2.4785 8.3249C2.45887 8.43489 2.48125 8.54805 2.54143 8.64317L3.37419 9.95335C3.40643 10.0058 3.45009 10.0508 3.50211 10.0851C3.55413 10.1195 3.61326 10.1424 3.67535 10.1523C3.73744 10.1621 3.801 10.1587 3.86159 10.1422C3.92217 10.1257 3.97832 10.0966 4.02609 10.0569C5.58545 8.81806 7.50899 8.09061 9.52069 7.9789C13.1649 7.83216 15.8332 10.0935 15.9884 14.4617C16.1841 19.5492 12.6614 25.3677 7.00217 25.6821C6.80511 25.6926 6.59726 25.6966 6.39345 25.6966C6.32452 25.6949 6.25689 25.678 6.19563 25.6473C6.13437 25.6166 6.08108 25.5728 6.03977 25.5192C5.99846 25.4656 5.97021 25.4036 5.95713 25.3379C5.94405 25.2721 5.94648 25.2044 5.96425 25.1397C7.05615 20.862 8.33027 16.275 9.63002 12.0064C9.652 11.9393 9.65713 11.8681 9.64497 11.7986C9.63281 11.7292 9.60373 11.6636 9.56014 11.6073C9.51654 11.551 9.45972 11.5057 9.39439 11.475C9.32907 11.4444 9.25714 11.4294 9.18462 11.4312L7.5299 11.523C7.43686 11.5279 7.34776 11.561 7.27512 11.6176C7.20249 11.6743 7.14998 11.7516 7.12499 11.8387C5.87652 16.0313 4.62671 20.5842 3.50241 24.8528C3.48975 24.9107 3.46481 24.9654 3.42916 25.0134C3.39351 25.0614 3.34794 25.1017 3.29536 25.1316C3.24279 25.1616 3.18435 25.1806 3.12379 25.1874C3.06323 25.1942 3.00188 25.1887 2.94364 25.1712C2.39571 24.9977 1.86677 24.7721 1.3645 24.4977C1.31229 24.4688 1.25444 24.4508 1.19465 24.4449C1.13487 24.4389 1.07446 24.4452 1.01729 24.4632C0.960129 24.4812 0.907463 24.5106 0.862666 24.5495C0.817868 24.5883 0.781925 24.6359 0.757136 24.689L0.0458471 26.1302C-0.00570222 26.2325 -0.0158622 26.3498 0.0173755 26.4589C0.0506132 26.5681 0.12483 26.6612 0.225356 26.7198C1.83689 27.6068 4.28388 28.1139 6.74302 27.9776C14.8412 27.5269 18.7998 20.2711 18.5852 14.3268V14.3254ZM34.4887 7.7339C33.5047 7.78892 32.6315 8.86197 32.6922 9.99397C32.7327 10.7395 33.2321 11.2386 33.992 11.1967C34.9759 11.1417 35.8735 10.0176 35.8154 8.93403C35.7763 8.18853 35.2 7.69459 34.49 7.7339H34.4887Z" fill="#B2B2B2"/>
</g>
<defs>
<clipPath id="clip0_513_60">
<rect width="88" height="24" fill="white" transform="translate(0 4)"/>
</clipPath>
</defs>
</svg>
