<svg width="117" height="36" viewBox="0 0 117 36" fill="none" xmlns="http://www.w3.org/2000/svg">
<g filter="url(#filter0_f_26_385)">
<path d="M26.7653 15.8406C27.2906 15.7346 27.6348 15.2211 27.4828 14.7072C26.9377 12.8644 25.9158 11.1913 24.5128 9.86147C22.8744 8.30835 20.7964 7.29905 18.5627 6.97148C16.329 6.64392 14.0487 7.01408 12.0333 8.03139C10.018 9.04869 8.36592 10.6635 7.30292 12.6551C6.23992 14.6468 5.81784 16.9181 6.09438 19.1586C6.37091 21.3992 7.33256 23.4997 8.8479 25.1731C10.3632 26.8465 12.3584 28.0112 14.5606 28.5079C16.4463 28.9333 18.4051 28.8512 20.2394 28.2784C20.751 28.1186 20.9861 27.5469 20.7817 27.0514C20.5773 26.556 20.0109 26.3255 19.4964 26.4755C18.0346 26.9016 16.4832 26.9521 14.9876 26.6147C13.1754 26.2059 11.5335 25.2475 10.2865 23.8704C9.03947 22.4933 8.2481 20.7647 8.02054 18.9209C7.79297 17.0771 8.14031 15.2079 9.01508 13.569C9.88986 11.93 11.2494 10.6011 12.9079 9.76395C14.5664 8.92678 16.443 8.62216 18.2811 8.89172C20.1193 9.16128 21.8293 9.99187 23.1777 11.27C24.2903 12.3247 25.1118 13.6418 25.5714 15.0934C25.7332 15.6043 26.2399 15.9466 26.7653 15.8406Z" fill="white"/>
</g>
<path d="M26.7653 15.8406C27.2906 15.7346 27.6348 15.2211 27.4828 14.7072C26.9377 12.8644 25.9158 11.1913 24.5128 9.86147C22.8744 8.30835 20.7964 7.29905 18.5627 6.97148C16.329 6.64392 14.0487 7.01408 12.0333 8.03139C10.018 9.04869 8.36592 10.6635 7.30292 12.6551C6.23992 14.6468 5.81784 16.9181 6.09438 19.1586C6.37091 21.3992 7.33256 23.4997 8.8479 25.1731C10.3632 26.8465 12.3584 28.0112 14.5606 28.5079C16.4463 28.9333 18.4051 28.8512 20.2394 28.2784C20.751 28.1186 20.9861 27.5469 20.7817 27.0514C20.5773 26.556 20.0109 26.3255 19.4964 26.4755C18.0346 26.9016 16.4832 26.9521 14.9876 26.6147C13.1754 26.2059 11.5335 25.2475 10.2865 23.8704C9.03947 22.4933 8.2481 20.7647 8.02054 18.9209C7.79297 17.0771 8.14031 15.2079 9.01508 13.569C9.88986 11.93 11.2494 10.6011 12.9079 9.76395C14.5664 8.92678 16.443 8.62216 18.2811 8.89172C20.1193 9.16128 21.8293 9.99187 23.1777 11.27C24.2903 12.3247 25.1118 13.6418 25.5714 15.0934C25.7332 15.6043 26.2399 15.9466 26.7653 15.8406Z" fill="white"/>
<path d="M22.1288 26.3726C22.4054 26.8316 23.0048 26.9829 23.4375 26.6668C24.7623 25.6991 25.8564 24.4437 26.6347 22.9903C27.4131 21.5368 27.8515 19.9303 27.9226 18.2913C27.9459 17.7559 27.4877 17.3409 26.9524 17.3651C26.417 17.3893 26.008 17.8439 25.9746 18.3788C25.894 19.6679 25.5372 20.9287 24.9238 22.0741C24.3105 23.2194 23.4589 24.2153 22.4305 24.9969C22.0039 25.3212 21.8521 25.9136 22.1288 26.3726Z" fill="#D9D9D9"/>
<path d="M22.1288 26.3726C22.4054 26.8316 23.0048 26.9829 23.4375 26.6668C24.7623 25.6991 25.8564 24.4437 26.6347 22.9903C27.4131 21.5368 27.8515 19.9303 27.9226 18.2913C27.9459 17.7559 27.4877 17.3409 26.9524 17.3651C26.417 17.3893 26.008 17.8439 25.9746 18.3788C25.894 19.6679 25.5372 20.9287 24.9238 22.0741C24.3105 23.2194 23.4589 24.2153 22.4305 24.9969C22.0039 25.3212 21.8521 25.9136 22.1288 26.3726Z" fill="#797979"/>
<path d="M25.6075 27.5648C25.9196 28.0005 26.529 28.1039 26.9354 27.7545C28.054 26.793 28.9695 25.6132 29.6239 24.2839C30.2783 22.9546 30.6549 21.5095 30.7348 20.0367C30.7639 19.5016 30.3103 19.0816 29.7746 19.1C29.239 19.1184 28.8252 19.5686 28.786 20.103C28.7014 21.2557 28.3958 22.3845 27.8827 23.4268C27.3696 24.4691 26.6614 25.3996 25.7995 26.1696C25.3998 26.5266 25.2954 27.1291 25.6075 27.5648Z" fill="#797979"/>
<path d="M30.3549 27.1058C30.7785 27.4342 31.3921 27.3591 31.6817 26.9082C32.1367 26.2 32.5086 25.4416 32.79 24.6482C32.9692 24.1431 32.6528 23.612 32.1338 23.4783C31.6149 23.3445 31.0906 23.6592 30.9019 24.1608C30.6984 24.7017 30.4433 25.2218 30.1403 25.7138C29.8593 26.1702 29.9314 26.7774 30.3549 27.1058Z" fill="#797979"/>
<ellipse cx="12.7037" cy="16.7155" rx="1.4557" ry="2.0551" fill="white"/>
<ellipse cx="18.3552" cy="16.7155" rx="1.4557" ry="2.0551" fill="white"/>
<path d="M102.322 17.8789C102.322 17.0195 102.483 16.2174 102.806 15.4727C103.129 14.7227 103.601 14.0716 104.22 13.5195C104.84 12.9674 105.601 12.5326 106.502 12.2148C107.408 11.8971 108.444 11.7383 109.611 11.7383C110.033 11.7383 110.455 11.7617 110.877 11.8086C111.304 11.8503 111.723 11.918 112.135 12.0117C112.551 12.1055 112.955 12.2253 113.345 12.3711C113.741 12.5117 114.116 12.681 114.47 12.8789L113.33 14.7539C113.116 14.6289 112.874 14.5169 112.603 14.418C112.332 14.3138 112.041 14.2279 111.728 14.1602C111.421 14.0872 111.101 14.0326 110.767 13.9961C110.439 13.9596 110.108 13.9414 109.775 13.9414C109.004 13.9414 108.317 14.0404 107.713 14.2383C107.108 14.431 106.598 14.7044 106.181 15.0586C105.765 15.4076 105.447 15.8268 105.228 16.3164C105.01 16.806 104.9 17.3424 104.9 17.9258C104.9 18.5299 105.015 19.0846 105.244 19.5898C105.473 20.0951 105.799 20.5299 106.22 20.8945C106.642 21.2591 107.153 21.5456 107.752 21.7539C108.351 21.957 109.02 22.0586 109.76 22.0586C110.348 22.0586 110.887 21.9935 111.377 21.8633C111.866 21.7279 112.293 21.5378 112.658 21.293C113.023 21.0482 113.319 20.7539 113.549 20.4102C113.778 20.0612 113.929 19.6706 114.002 19.2383H109.736V17.1992H116.228V17.207L116.236 17.1992C116.366 17.8242 116.405 18.4336 116.353 19.0273C116.306 19.6159 116.171 20.1732 115.947 20.6992C115.728 21.2201 115.426 21.6992 115.041 22.1367C114.655 22.5742 114.194 22.9518 113.658 23.2695C113.122 23.582 112.512 23.8268 111.83 24.0039C111.148 24.1758 110.4 24.2617 109.588 24.2617C108.452 24.2617 107.434 24.0951 106.533 23.7617C105.637 23.4284 104.877 22.9727 104.252 22.3945C103.627 21.8164 103.148 21.1393 102.814 20.3633C102.486 19.5872 102.322 18.7591 102.322 17.8789Z" fill="white"/>
<path d="M87.1423 11.8867H89.6189L97.2283 15.8711V11.8867H99.7048V24.0977H97.2283V18.4961L89.6189 14.5352V24.0977H87.1423V11.8867Z" fill="white"/>
<path d="M72.0564 11.8867H74.533V18.6133C74.533 19.1654 74.6085 19.6576 74.7595 20.0898C74.9106 20.5169 75.1345 20.8789 75.4314 21.1758C75.7335 21.4727 76.1059 21.6992 76.5486 21.8555C76.9913 22.0065 77.5069 22.082 78.0955 22.082C78.6788 22.082 79.1918 22.0065 79.6345 21.8555C80.0824 21.6992 80.4548 21.4727 80.7517 21.1758C81.0538 20.8789 81.2804 20.5169 81.4314 20.0898C81.5824 19.6576 81.658 19.1654 81.658 18.6133V11.8867H84.1345V18.9102C84.1345 19.7122 83.9991 20.4414 83.7283 21.0977C83.4574 21.7539 83.0642 22.3164 82.5486 22.7852C82.033 23.2539 81.4001 23.6159 80.6501 23.8711C79.9054 24.1263 79.0538 24.2539 78.0955 24.2539C77.1371 24.2539 76.283 24.1263 75.533 23.8711C74.7882 23.6159 74.158 23.2539 73.6423 22.7852C73.1267 22.3164 72.7335 21.7539 72.4626 21.0977C72.1918 20.4414 72.0564 19.7122 72.0564 18.9102V11.8867Z" fill="white"/>
<path d="M59.2048 11.8867H69.6033V14.0586H61.6814V16.4961H68.697V18.5352H61.6814V21.9336H69.7673V24.0977H59.2048V11.8867Z" fill="white"/>
<path d="M49.5876 21.0742L44.2517 11.8867H47.0564L50.8142 18.832L54.5251 11.8867H57.3298L52.0642 21.0586V24.0977H49.5876V21.0742Z" fill="white"/>
<defs>
<filter id="filter0_f_26_385" x="0.0118408" y="0.855469" width="33.5071" height="33.9211" filterUnits="userSpaceOnUse" color-interpolation-filters="sRGB">
<feFlood flood-opacity="0" result="BackgroundImageFix"/>
<feBlend mode="normal" in="SourceGraphic" in2="BackgroundImageFix" result="shape"/>
<feGaussianBlur stdDeviation="3" result="effect1_foregroundBlur_26_385"/>
</filter>
</defs>
</svg>
