<svg width="40" height="40" viewBox="0 0 40 40" fill="none" xmlns="http://www.w3.org/2000/svg">
<path d="M38.2106 15.9585V30.5666C38.2106 31.7447 37.7426 32.8744 36.9096 33.7074C36.0766 34.5404 34.9469 35.0084 33.7688 35.0084H7.12183C5.9438 35.0084 4.81401 34.5404 3.98102 33.7074C3.14803 32.8744 2.68005 31.7447 2.68005 30.5666V15.9585H38.2106ZM20.4757 20.3663L18.0708 27.7204C17.98 27.9979 18.0022 28.3 18.1326 28.5612C18.2631 28.8224 18.4912 29.0217 18.7676 29.1158C18.8669 29.1625 18.976 29.1845 19.0856 29.1802C19.5609 29.1534 19.979 28.8585 20.1612 28.4172L22.5715 21.0667C22.6622 20.7887 22.6394 20.4862 22.5083 20.2249C22.3771 19.9636 22.1482 19.7647 21.8711 19.6713C21.5939 19.581 21.2922 19.6035 21.0314 19.7339C20.7706 19.8643 20.5716 20.0921 20.4775 20.3681L20.4757 20.3663ZM13.0019 22.1619L8.23138 24.1095C8.03388 24.1987 7.86456 24.3403 7.74174 24.5189C7.61891 24.6974 7.54727 24.9062 7.53456 25.1225C7.53585 25.3347 7.59798 25.5421 7.71356 25.7201C7.82915 25.8981 7.99334 26.0392 8.18669 26.1267L12.8768 28.2796C13.0144 28.3511 13.1652 28.3937 13.3199 28.4047C13.5313 28.4049 13.7385 28.3456 13.9179 28.2338C14.0973 28.122 14.2418 27.9621 14.3348 27.7722C14.4517 27.503 14.4572 27.1984 14.35 26.9252C14.2429 26.6519 14.0318 26.4322 13.763 26.3143L11.4188 25.2369L13.7648 24.2864C14.3973 23.9826 14.7153 23.3465 14.4616 22.7944C14.3415 22.5255 14.125 22.3115 13.8547 22.1944C13.5845 22.0773 13.2802 22.0657 13.0019 22.1619ZM26.4379 22.7766C26.329 23.0538 26.3344 23.363 26.4529 23.6362C26.5715 23.9095 26.7936 24.1247 27.0704 24.2345L29.4164 25.185L27.0704 26.2624C26.8017 26.3804 26.5906 26.6001 26.4835 26.8733C26.3763 27.1466 26.3818 27.4512 26.4987 27.7204C26.5927 27.9089 26.7375 28.0674 26.9169 28.1779C27.0962 28.2885 27.3029 28.3466 27.5136 28.3457C27.6726 28.3647 27.8326 28.3197 27.9584 28.2207L32.6575 26.0748C32.8477 25.9821 33.008 25.8378 33.1201 25.6583C33.2323 25.4789 33.2918 25.2716 33.2918 25.06C33.2956 24.856 33.2371 24.6557 33.1241 24.4859C33.0111 24.316 32.8489 24.1847 32.6593 24.1095L27.8959 22.1441C27.6186 22.0351 27.3095 22.0405 27.0362 22.1591C26.763 22.2776 26.5478 22.4997 26.4379 22.7766ZM33.7688 3.91962C34.9469 3.91962 36.0766 4.38759 36.9096 5.22058C37.7426 6.05358 38.2106 7.18336 38.2106 8.36139V13.7394H2.68005V8.36139C2.68005 7.18336 3.14803 6.05358 3.98102 5.22058C4.81401 4.38759 5.9438 3.91962 7.12183 3.91962H33.7688ZM8.41004 8.71335C8.21693 8.82073 8.04713 8.96546 7.91052 9.13912C7.77391 9.31277 7.67322 9.51188 7.61432 9.72483C7.55543 9.93779 7.5395 10.1603 7.56747 10.3795C7.59544 10.5987 7.66675 10.8101 7.77724 11.0014C7.88772 11.1928 8.03519 11.3602 8.21103 11.494C8.38688 11.6278 8.58759 11.7252 8.80147 11.7807C9.01535 11.8361 9.23812 11.8484 9.45682 11.8169C9.67551 11.7854 9.88574 11.7107 10.0753 11.5971C10.4501 11.3725 10.7216 11.0095 10.8313 10.5865C10.9409 10.1635 10.8799 9.71441 10.6614 9.33599C10.4428 8.95757 10.0843 8.68021 9.66318 8.56374C9.24202 8.44726 8.79194 8.50099 8.41004 8.71335ZM13.579 8.71335C13.3895 8.82281 13.2235 8.96851 13.0903 9.14214C12.9571 9.31578 12.8595 9.51393 12.8029 9.72531C12.7463 9.93668 12.7319 10.1571 12.7606 10.3741C12.7892 10.591 12.8602 10.8002 12.9697 10.9896C13.0792 11.1791 13.2249 11.3452 13.3985 11.4783C13.5721 11.6115 13.7703 11.7091 13.9817 11.7657C14.193 11.8223 14.4135 11.8367 14.6304 11.8081C14.8473 11.7794 15.0565 11.7084 15.246 11.5989C15.6286 11.3779 15.9078 11.0138 16.0221 10.587C16.1363 10.1601 16.0763 9.70528 15.8553 9.32263C15.7458 9.13316 15.6001 8.96711 15.4265 8.83395C15.2528 8.70079 15.0547 8.60314 14.8433 8.54656C14.4164 8.4323 13.9616 8.49229 13.579 8.71335ZM19.5823 8.49004C19.1405 8.49004 18.7167 8.66557 18.4042 8.97802C18.0918 9.29048 17.9162 9.71426 17.9162 10.1561C17.9162 10.598 18.0918 11.0218 18.4042 11.3342C18.7167 11.6467 19.1405 11.8222 19.5823 11.8222C20.0242 11.8222 20.448 11.6467 20.7604 11.3342C21.0729 11.0218 21.2484 10.598 21.2484 10.1561C21.2484 9.71426 21.0729 9.29048 20.7604 8.97802C20.448 8.66557 20.0242 8.49004 19.5823 8.49004Z" fill="white"/>
</svg>
