<svg width="36" height="36" viewBox="0 0 36 36" fill="none" xmlns="http://www.w3.org/2000/svg">
<path d="M25.5417 16.0823C25.3061 16.0796 25.0708 16.0823 24.8384 16.0796C24.7551 16.0796 24.7313 16.1168 24.7313 16.1932C24.734 16.3728 24.734 16.5494 24.734 16.7287V16.729C24.7365 16.9006 24.734 17.0719 24.7365 17.2409C24.7365 17.3783 24.7605 17.4051 24.8933 17.4051C25.1444 17.4078 25.3952 17.4051 25.6463 17.4078C25.7404 17.4078 25.7773 17.3628 25.7746 17.2757C25.7715 16.9535 25.7715 16.6316 25.769 16.3094C25.7665 16.25 25.7417 16.1937 25.6996 16.1516C25.6575 16.1095 25.6011 16.0848 25.5417 16.0823Z" fill="#B2B2B2"/>
<path d="M28.8726 2.25H7.12742C4.43366 2.25 2.25 4.43366 2.25 7.12742V28.8726C2.25 31.5663 4.43366 33.75 7.12742 33.75H28.8726C31.5663 33.75 33.75 31.5663 33.75 28.8726V7.12742C33.75 4.43366 31.5663 2.25 28.8726 2.25ZM7.63183 17.7513C7.60256 18.1717 7.57574 18.5948 7.52838 19.0153C7.44547 19.7453 7.28065 20.4548 6.94716 21.1136C6.8614 21.2774 6.74332 21.4231 6.6224 21.6081C6.54884 21.453 6.48685 21.3311 6.43076 21.2059C6.23251 20.7629 6.0368 20.3188 5.84364 19.8735C5.82271 19.8258 5.80808 19.7575 5.82901 19.7156C5.95582 19.4445 5.96456 19.1551 5.98204 18.8659C6.00602 18.5024 6.03569 18.1419 6.06211 17.7785C6.08264 17.5005 6.09422 17.2237 6.11759 16.9465C6.14442 16.6248 6.17693 16.3029 6.20335 15.984C6.20925 15.906 6.24481 15.8824 6.31553 15.8824C6.75552 15.8824 7.19184 15.8824 7.63183 15.8795C7.72592 15.8795 7.75275 15.9186 7.74685 16.0078C7.70844 16.5886 7.67288 17.17 7.63183 17.7513ZM10.4615 21.2175C10.4323 21.593 10.2577 21.9119 9.96262 22.1503C9.747 22.323 9.49642 22.3948 9.22187 22.3917C8.98877 22.3917 8.75871 22.3887 8.52561 22.3917C8.44615 22.3917 8.39575 22.3677 8.36324 22.2903C8.22768 21.9865 8.08908 21.682 7.95353 21.3784C7.9326 21.3335 7.92671 21.2858 7.90862 21.2412C7.84379 21.0774 7.84664 21.0711 8.02669 21.0681H8.57866C8.8148 21.0681 8.9152 20.9701 8.91804 20.7281C8.92089 20.5466 8.92089 20.3649 8.92089 20.1828V17.2948C8.92678 17.3011 8.92963 17.3011 8.93268 17.3011V13.8973C8.93268 13.7272 8.93857 13.7213 9.10684 13.7213H10.2664C10.4703 13.7213 10.4731 13.7272 10.4731 13.9359C10.4731 15.015 10.4731 16.0937 10.4762 17.17C10.4792 18.1177 10.488 19.0657 10.488 20.0132C10.488 20.4157 10.4939 20.8175 10.4615 21.2175ZM13.4618 20.0701C13.2638 20.5289 13.0569 20.9819 12.8537 21.4378C12.8356 21.4829 12.8064 21.5274 12.7592 21.6134C12.6411 21.4345 12.5174 21.289 12.4373 21.1218C12.3251 20.8781 12.2574 20.6123 12.1453 20.3678C12.0243 20.1026 11.9802 19.8168 11.924 19.5364C11.8772 19.2974 11.8683 19.0501 11.8508 18.8088C11.803 18.1977 11.762 17.5868 11.7142 16.9792C11.6885 16.6461 11.6611 16.3132 11.6319 15.9803C11.626 15.9208 11.6411 15.894 11.7089 15.894C12.1664 15.894 12.6208 15.8881 13.0783 15.8852C13.1636 15.8852 13.1992 15.9236 13.202 16.0041C13.2138 16.1889 13.2226 16.3738 13.2372 16.5587C13.249 16.7109 13.2665 16.8625 13.2787 17.0117C13.2992 17.2263 13.3201 17.4409 13.3347 17.6525C13.3553 17.9266 13.3553 18.201 13.3937 18.4717C13.4469 18.8863 13.4055 19.3094 13.5498 19.7152C13.5851 19.8105 13.5114 19.9569 13.4618 20.0701ZM16.8071 20.9439C16.692 21.2091 16.5681 21.4685 16.4502 21.7308C16.385 21.8796 16.3234 22.0283 16.261 22.1775C16.1874 22.3566 16.1372 22.3921 15.9484 22.3921H15.0634C14.7648 22.3921 14.4669 22.4015 14.169 22.3891C14.0275 22.3834 13.8885 22.3385 13.7471 22.3086C13.676 22.294 13.6613 22.2521 13.691 22.1838C13.8706 21.798 14.0486 21.4115 14.2249 21.0242C14.2663 20.935 14.2984 20.8395 14.3458 20.7501C14.3576 20.7257 14.4019 20.6992 14.4253 20.7051C14.9183 20.8303 15.4229 20.8153 15.9243 20.8096C16.1899 20.8065 16.4555 20.8065 16.7211 20.8096C16.8479 20.8098 16.8601 20.8277 16.8071 20.9439ZM16.9595 20.076C16.931 20.1073 16.8923 20.1275 16.8504 20.1329C16.2988 20.1359 15.7438 20.1387 15.1922 20.1298C15.024 20.1264 14.8528 20.0879 14.726 19.9597C14.5929 19.8256 14.5281 19.6675 14.5958 19.4858C14.718 19.165 14.8448 18.8461 14.9762 18.529C15.1302 18.1656 15.2863 17.8019 15.4546 17.4082C15.3629 17.4023 15.3073 17.3964 15.2542 17.3964C15.0918 17.3936 14.9295 17.4082 14.7671 17.3873C14.5901 17.3667 14.4102 17.3458 14.2716 17.1971C14.1357 17.0507 14.1149 16.8778 14.1682 16.7079C14.2535 16.4368 14.3657 16.1744 14.4779 15.9121C14.5842 15.6678 14.7051 15.4294 14.8144 15.188C14.9325 14.9284 15.0473 14.6691 15.1626 14.4096C15.2654 14.1809 15.3667 13.9516 15.4664 13.7215C15.4956 13.6497 15.5406 13.6231 15.62 13.6231C16.0541 13.626 16.4904 13.6231 16.9245 13.6231C17.0688 13.6231 17.0719 13.6378 17.0158 13.7694C16.7652 14.3503 16.511 14.9286 16.2632 15.5099C16.2334 15.5702 16.2172 15.6363 16.2159 15.7036C16.2246 15.8586 16.2573 15.8824 16.4169 15.8824C16.7412 15.8854 17.066 15.8824 17.3873 15.8824C17.4527 15.8824 17.5204 15.8911 17.5852 15.8942C17.6769 15.8972 17.6887 15.9362 17.65 16.0161C17.4704 16.4015 17.2932 16.788 17.1186 17.1757C16.9981 17.4503 16.8831 17.7273 16.765 18.0018C16.6843 18.1849 16.6026 18.3676 16.5201 18.5499C16.4431 18.7168 16.4961 18.8005 16.6849 18.8036C16.9239 18.8036 17.1629 18.8066 17.4017 18.8036C17.4846 18.8036 17.5261 18.8275 17.4846 18.9168C17.3403 19.2444 17.1983 19.575 17.054 19.9032C17.0274 19.9628 16.9981 20.0251 16.9595 20.076ZM22.3106 22.4074H17.3357C17.2674 22.3986 17.1973 22.3986 17.0997 22.3986C17.1347 22.2948 17.1558 22.2226 17.1851 22.1572C17.3714 21.7485 17.56 21.3433 17.7429 20.935C17.7844 20.8423 17.8433 20.8189 17.9317 20.8189H19.0708C19.2513 20.8189 19.2596 20.8098 19.2596 20.6308V16.0019C19.2596 15.844 19.2565 15.8409 19.0976 15.8409C18.8554 15.8409 18.6107 15.8379 18.3687 15.8409C18.277 15.8409 18.2388 15.8204 18.2388 15.7159C18.2447 15.2804 18.2418 14.8455 18.2418 14.4106C18.2418 14.2556 18.2449 14.2556 18.3951 14.2556H21.2927C21.4609 14.2556 21.6321 14.2586 21.8003 14.2556C21.8804 14.2556 21.9125 14.2883 21.9095 14.3688C21.9064 14.8218 21.9064 15.2747 21.9064 15.7308C21.9064 15.8113 21.8771 15.8409 21.7942 15.8409C21.5321 15.8379 21.2725 15.8438 21.0092 15.8438C20.9181 15.8438 20.8767 15.8858 20.8767 15.9814C20.8797 16.7113 20.8824 17.4385 20.8824 18.1689C20.8824 18.9974 20.8824 19.826 20.8854 20.6574C20.8854 20.8065 20.9 20.8246 21.0512 20.8246H22.299C22.4346 20.8246 22.4527 20.8393 22.4553 20.9762C22.4588 21.4118 22.4553 21.8467 22.4588 22.2818C22.4584 22.3956 22.3964 22.4074 22.3106 22.4074ZM30.1974 21.021C30.1915 21.6709 29.7605 22.1806 29.15 22.3265C28.9787 22.3683 28.8012 22.3801 28.6242 22.3864C28.3531 22.3952 28.0786 22.3893 27.8071 22.3893C27.6388 22.3893 27.5919 22.3561 27.5297 22.2041C27.3972 21.8885 27.2586 21.5727 27.1224 21.2565L27.0962 21.1941C27.0488 21.0722 27.0639 21.0506 27.1935 21.0506C27.5681 21.0478 27.9459 21.0569 28.3204 21.039C28.5448 21.0273 28.6393 20.9256 28.6454 20.696C28.6541 20.2576 28.6336 19.8197 28.6395 19.3817C28.6425 19.1639 28.368 18.9283 28.1733 18.9165C28.137 18.9131 28.1006 18.9112 28.0641 18.9109C27.3205 18.9109 26.5739 18.9109 25.8307 18.9137C25.6212 18.9137 25.6063 18.9348 25.6063 19.1464L25.6147 22.2249C25.6147 22.3893 25.6116 22.3921 25.4464 22.3921H24.2071C24.0478 22.3921 24.0364 22.3799 24.0364 22.222V20.6367C24.0389 20.6423 24.0417 20.6423 24.0447 20.6423V19.0151C24.0447 18.9048 23.9712 18.8985 23.8946 18.8985C23.4899 18.9019 23.0831 18.9109 22.6791 18.9109C22.4043 18.9109 22.4338 18.9434 22.4307 18.6572C22.4277 18.2642 22.4307 17.8673 22.4307 17.4743C22.4307 17.3314 22.4454 17.3133 22.5874 17.3103C23.0122 17.3074 23.4343 17.3103 23.8592 17.3074C24.0216 17.3074 24.0303 17.3011 24.0332 17.1402C24.0362 16.7471 24.0301 16.3537 24.0332 15.96C24.0332 15.8615 23.9917 15.8318 23.8976 15.8318C23.6259 15.8348 23.3513 15.8289 23.0798 15.8318C22.9945 15.8318 22.9648 15.8021 22.9648 15.7157C22.9685 15.2684 22.9685 14.8242 22.9624 14.3771C22.9624 14.2698 23.0034 14.2464 23.0979 14.2464C23.3485 14.2495 23.5999 14.2464 23.8505 14.2464C24.0185 14.2464 24.0275 14.2342 24.0303 14.0582C24.0303 13.9544 24.0362 13.8501 24.0303 13.7457C24.0275 13.6471 24.0718 13.6203 24.163 13.6203C24.5233 13.6233 24.8863 13.6233 25.246 13.6233H25.4436C25.6002 13.6233 25.6031 13.6233 25.6092 13.7843C25.6118 13.8798 25.6031 13.978 25.6057 14.0735C25.6088 14.2076 25.6443 14.2432 25.777 14.2466C26.0014 14.2497 26.2258 14.2497 26.4528 14.2497C27.034 14.2525 27.539 14.4521 27.9221 14.8963C28.1347 15.1435 28.2674 15.4448 28.2879 15.7755C28.3088 16.112 28.2942 16.4518 28.3001 16.7888C28.3001 16.9142 28.3088 17.0424 28.3147 17.1672C28.3204 17.2926 28.3503 17.3251 28.4771 17.3222C28.7348 17.3131 28.9916 17.3557 29.2325 17.4476C29.7489 17.6476 30.0673 18.0108 30.1708 18.5595C30.1909 18.6685 30.2007 18.7792 30.2001 18.8901C30.2033 19.6002 30.2027 20.3105 30.1974 21.021ZM29.834 15.6832C29.5981 15.8383 29.3504 15.8324 29.0638 15.8295C28.975 15.8295 28.8573 15.8324 28.7423 15.8265C28.7128 15.8237 28.6626 15.7875 28.6594 15.7635C28.633 15.4123 28.5891 15.0573 28.713 14.7175C28.8224 14.4167 29.0935 14.2405 29.4123 14.2348C29.5846 14.2336 29.7526 14.2885 29.891 14.3911C30.0293 14.4938 30.1305 14.6386 30.1793 14.8039C30.271 15.1321 30.1175 15.4954 29.834 15.6832Z" fill="#B2B2B2"/>
</svg>
