<svg width="31" height="32" viewBox="0 0 31 32" fill="none" xmlns="http://www.w3.org/2000/svg">
<g clip-path="url(#clip0_82_6637)">
<path d="M15.5 31.5C12.4344 31.5 9.43763 30.5909 6.88867 28.8878C4.33971 27.1846 2.35303 24.7639 1.17987 21.9316C0.00671586 19.0993 -0.300236 15.9828 0.297835 12.9761C0.895906 9.9694 2.37214 7.20757 4.53985 5.03985C6.70757 2.87214 9.4694 1.39591 12.4761 0.797835C15.4828 0.199764 18.5993 0.506716 21.4316 1.67987C24.2639 2.85303 26.6846 4.83971 28.3878 7.38867C30.0909 9.93763 31 12.9344 31 16C30.9955 20.1095 29.3611 24.0494 26.4552 26.9552C23.5494 29.8611 19.6095 31.4955 15.5 31.5Z" fill="#B2B2B2"/>
<path d="M25.9754 14.6189L25.943 14.5286L25.5705 14.5898V14.6189L25.3243 14.6511V14.6833L25.1073 14.7123V14.7446H25.0133V14.7736L24.7671 14.8058V14.8348H24.6732V14.867H24.5501V14.8993H24.4238V14.9283H24.3007V14.9605H24.1776V14.9895H24.0221V15.0218H23.8374V15.0411H23.6496V15.0733C23.5167 15.112 23.3256 15.0572 23.2479 15.1346H23.2155L23.2479 15.0411H23.2803V14.9799L23.3451 14.9508V14.8896L23.4358 14.8251V14.7639L23.4973 14.7349L23.5297 14.6414H23.5589V14.5898L23.6528 14.5286L23.6852 14.4029L23.7467 14.3739V14.3126L23.8083 14.2804V14.2192L23.8698 14.1902L23.9022 14.0645L23.9638 14.0355L23.9929 13.9097L24.0577 13.8807V13.8195H24.0869V13.7518H24.1193V13.6873H24.1484V13.6261L24.21 13.5971V13.5359H24.2521V13.4714H24.2845V13.4295H24.3136V13.3683H24.346V13.307H24.3752V13.2458H24.4076V13.1716H24.4367V13.1072H24.4691V13.0427H24.5015V12.9815H24.5307L24.5631 12.859H24.576V12.7977H24.6084V12.7043H24.6376L24.67 12.5818H24.7024V12.4883H24.7315L24.7639 12.3658H24.7931V12.2724H24.8254V12.2111H24.8546L24.887 12.0274H24.9161V11.9662H24.9485C25.0846 11.5214 25.2174 11.0798 25.3502 10.6382V10.4835H25.3826V10.361H25.415V10.2063H25.4442V10.0516H25.4766V9.88396H25.5057V9.70024H25.5478V9.48429H25.577V9.26833H25.6094V8.94601C25.6773 8.53821 25.6979 8.12401 25.6709 7.71152V7.21837H25.6418V7.15713H25.6094L25.577 7.06366C25.253 7.07977 25.1267 7.36019 24.9583 7.5278C24.7475 7.741 24.52 7.93717 24.278 8.11442L24.1517 8.26591H24.0901L23.9962 8.39162L23.9055 8.42063L23.8731 8.48187H23.8115L23.7176 8.60757H23.656L23.6269 8.66882H23.5621L23.5005 8.76229H23.439L23.4098 8.82353L23.3159 8.85254V8.88477H23.2479L23.2155 8.94601L23.1248 8.97824V9.00725H23.06L23.0308 9.06849H22.9563L22.9239 9.12973L22.8008 9.16197L22.7685 9.22321L22.6454 9.25544L22.613 9.31668L22.4283 9.37792L22.3959 9.43916H22.3344V9.47139H22.2728V9.5004H22.2113V9.53263H22.1497V9.56164H22.0882V9.59388H22.0266V9.62288H21.9845V9.65512H21.9197V9.68735H21.8582V9.71636H21.7902V9.74859H21.7286V9.7776H21.6606V9.80983H21.599V9.83884H21.5051V9.88396L21.382 9.9162V9.9452H21.2881V9.97744L21.165 10.0064V10.0387L20.9771 10.0677V10.0999H20.9155V10.1322L20.7309 10.1612V10.1934H20.6888V10.2063L20.5009 10.2385V10.2675H20.3972V10.2998H20.3033V10.332L19.9794 10.3932V10.4222H19.8563V10.4545H19.7332V10.4835H19.6198V10.5286H19.4967V10.5576H19.3736V10.5898H19.2181C19.0065 10.6578 18.7899 10.7095 18.5703 10.7446C18.6124 10.6317 18.6545 10.5189 18.6933 10.4222H18.7257L18.7452 10.2063H18.7776V10.145H18.81L18.8715 9.82272H18.9007V9.73247H18.9331V9.60677H18.9622V9.48429H18.9946V9.32957H19.027V9.17808H19.0691V8.96213C19.1972 8.24054 19.1438 7.49862 18.9136 6.80258V6.6801H18.8845V6.58662H18.8521V6.49315H18.8229V6.39968H18.7905V6.2772H18.7452L18.716 6.09347H18.6836C18.6545 6.04512 18.6253 6.03868 18.5929 6H18.499L18.4666 6.06124H18.4212L18.3921 6.12248H18.3597V6.21595H18.3305V6.2772H18.2981V6.37067H18.2658L18.2366 6.49315H18.2042L18.1751 6.61563L18.0973 6.66076L18.0325 6.84448H18.0034L17.971 6.93795L17.9094 6.97018V7.03143H17.8803L17.8479 7.12168L17.7863 7.15391V7.21515L17.7248 7.24738L17.6924 7.33763L17.5077 7.49235V7.55359L17.3523 7.67929C17.268 7.76954 17.187 7.86301 17.1028 7.95649H17.0413L16.9182 8.1112H16.8566L16.7951 8.20145H16.7335L16.6688 8.29492H16.6072L16.5781 8.35616H16.5165L16.4841 8.4174H16.4226L16.3902 8.47865H16.3286L16.2995 8.54311L16.1731 8.57212L16.144 8.63336H16.0889V8.66559H16.0241V8.6946H15.9626V8.72683H15.901V8.75906H15.8298V8.78807H15.7682V8.82031H15.7067V8.84931H15.6451V8.88155L15.4572 8.94279V8.97502H15.3763V9.00403L15.2499 9.03626V9.06527L15.0653 9.0975V9.12651H15.0037V9.15874L13.9185 9.48106H13.7631V9.51007H13.6076V9.5423H13.4521V9.56164H13.2998V9.59388L12.9143 9.62288L11.3951 9.99355C10.6621 10.2291 9.95547 10.5391 9.28627 10.9186H9.22472V10.9508H9.16317V10.9799H9.10163V11.0121H9.04008L9.00769 11.0733H8.94614V11.1056H8.89755L8.86515 11.1668L8.74206 11.1958L8.70966 11.2603H8.64812L8.61896 11.3215H8.55742C8.54471 11.3409 8.53386 11.3614 8.52502 11.3828H8.46347V11.4118L8.36953 11.444L8.34038 11.5052H8.27883L8.21404 11.5987H8.1525L8.09095 11.6922H8.0294L7.96785 11.7824H7.90631L7.77997 11.9371H7.73138L7.57589 12.1209H7.51434L7.14506 12.5238L6.92802 12.7075V12.7848L6.74014 12.9396L6.71098 13.033L6.61704 13.0943V13.1555L6.5231 13.2168V13.278L6.42916 13.3425V13.4037L6.36761 13.4327L6.33846 13.5262H6.30606V13.5874L6.24452 13.6197L6.21212 13.7099H6.18297L6.15058 13.8356L6.08903 13.8646L6.02748 14.0516L5.96593 14.0806V14.1418H5.93354V14.2063H5.90439V14.2675H5.87199V14.3288H5.84284V14.39H5.78777V14.4512H5.75861L5.69383 14.635H5.66467V14.7188H5.63228L5.60313 14.8413H5.57073V14.9347H5.54158V14.996H5.50918L5.47679 15.1829H5.46383V15.2442H5.43144L5.36989 15.5665H5.33426V15.66H5.30187V15.7534H5.26947V15.8759H5.24032V15.9984H5.20792V16.1531H5.17877V16.2788H5.1399V16.4625H5.11074V16.6463H5.07835V16.8944H5.04596V17.2168C4.99684 17.5432 4.98705 17.8743 5.0168 18.2031H5.04596V18.5737H5.07835V18.8219H5.11074V19.0379H5.1399V19.2313C5.25975 19.6342 5.33426 20.0661 5.48003 20.4335L5.51242 20.6205H5.54482V20.6817H5.57397L5.60636 20.8654H5.63552L5.66791 20.9879H5.69707V21.0814H5.72946L5.76185 21.2039H5.78777V21.2683H5.82016V21.3586H5.84932L5.91086 21.5455H5.94326L5.97241 21.668L6.0372 21.7002L6.09875 21.884L6.16029 21.913L6.18945 22.0387L6.25424 22.0677L6.28339 22.1934L6.34494 22.2224V22.2836L6.40648 22.3159V22.3771L6.47127 22.4093V22.4545L6.53282 22.4835V22.5447L6.62352 22.6092V22.6704L6.71746 22.7317V22.7929L6.8114 22.8541V22.9154L6.96689 23.0379V23.0991L7.18393 23.2828V23.3441L7.36857 23.4988L7.64716 23.8211H7.73138C7.79293 23.892 7.85771 23.9629 7.91926 24.0371H7.98081L8.10391 24.1918H8.16545L8.25939 24.3143H8.32094L8.37925 24.3884H8.4408L8.47319 24.4529H8.53474L8.59629 24.5431H8.65783L8.69023 24.6043L8.78417 24.6366V24.6688L8.90726 24.6978L8.93642 24.7591H9.00121L9.03036 24.8203L9.15346 24.8525L9.18585 24.9138L9.68147 25.1297V25.162H9.74302V25.191H9.80457V25.2232L9.99245 25.2844V25.3167H10.0832V25.3554L10.2095 25.3876V25.4166L10.3941 25.4488V25.4778H10.4557V25.5101L10.6436 25.5391V25.5713H10.7343V25.6035H10.8282V25.6326H10.9221V25.6777H11.0128L11.2623 25.7099V25.7389H11.3854V25.7712H11.5117V25.8034H11.664V25.8324H11.8194V25.8646H11.9749V25.8936H12.192V25.9259H12.4414V25.9549H12.8107V26H13.8343V25.9678L14.4563 25.9388V25.9065H14.6733V25.8775H14.858V25.8453H15.0134V25.8163L15.292 25.784V25.7518H15.4151V25.7228L15.6322 25.6906V25.6777H15.7261V25.6454H15.8298V25.6164H15.9237V25.5842H16.0144V25.552H16.1083V25.523H16.1699V25.4907L16.3578 25.4617V25.4295L16.4809 25.4005V25.3554H16.5748V25.3231L16.6979 25.2909V25.2587H16.8016V25.2297L16.9862 25.1684V25.1362H17.0478V25.1072H17.1255V25.0749L17.3134 25.0137L17.3425 24.9525L17.5304 24.8912L17.5596 24.8267L17.6859 24.7977V24.7655L17.7766 24.7365L17.809 24.6753L17.9321 24.643L17.9936 24.5496L18.0876 24.5205V24.4883H18.1491L18.1815 24.4271H18.2431L18.2722 24.3658L18.3662 24.3336L18.4601 24.2111H18.5217L18.6156 24.0886H18.6772L18.8326 23.9017H18.8942L19.2181 23.5342L19.4967 23.2861V23.2248L19.6846 23.0701V23.0089L19.8368 22.8864V22.8251L19.9308 22.7607V22.6994L20.0247 22.6382V22.577L20.0863 22.5447V22.4835L20.1802 22.4222V22.361L20.2418 22.3288V22.2675L20.3033 22.2385V22.1773H20.3325V22.1128L20.3972 22.0838L20.4264 21.9613L20.488 21.9291C20.488 21.8872 20.5106 21.8485 20.5203 21.8066L20.5819 21.7744V21.7131H20.6143V21.6519H20.6434V21.5907H20.6888V21.5294H20.7179V21.4682H20.7503V21.4037H20.7795V21.3425H20.8119L20.8734 21.1587H20.9058V21.0653H20.935C20.935 21.0234 20.9577 20.9847 20.9674 20.9428H20.9965L21.3367 19.9565V19.8308H21.3658V19.7083H21.3982C21.4306 19.6084 21.3982 19.531 21.4598 19.4633C21.5667 19.2828 21.7416 19.3086 21.923 19.2151V19.1861L22.1109 19.1217V19.0927H22.2048V19.0604L22.3279 19.0314V18.9992L22.451 18.9702L22.4834 18.9057H22.5449V18.8767H22.6065V18.8445H22.668V18.8155H22.7296L22.762 18.7542L22.8851 18.722L22.9175 18.6608L23.0406 18.6285L23.0697 18.5673H23.1345L23.1637 18.506H23.2252L23.2868 18.4126H23.3515L23.3807 18.3513H23.4422L23.4746 18.2901L23.5653 18.2579L23.6593 18.1354H23.7208L23.8472 17.9807H23.9087C23.9994 17.8775 24.0934 17.7776 24.1873 17.6745L24.576 17.2973V17.2361L24.7315 17.1104V17.0492L24.7931 17.0201V16.9879L24.8546 16.9589V16.8944L24.9485 16.8332V16.772L25.0101 16.7429L25.0425 16.6495H25.0716V16.5882L25.1332 16.556V16.4948L25.198 16.4658V16.4013L25.2595 16.3723V16.3304H25.2887V16.2691L25.3502 16.2369L25.3826 16.1144H25.415V16.0403L25.4766 16.0081V15.9468H25.5057V15.8856H25.5478V15.8243H25.577V15.7599H25.6094V15.6857H25.6418V15.6245H25.6709L25.7325 15.4408H25.7649L25.794 15.2861H25.8264V15.2248H25.8588V15.1313H25.8718V15.0701H25.9042V14.9766H25.9333V14.8864H25.9657C25.9865 14.8451 25.9981 14.7998 25.9998 14.7537C26.0015 14.7075 25.9932 14.6615 25.9754 14.6189ZM8.15897 19.8018L8.03588 19.8308V19.8759H7.97433V19.9081H7.85124C7.65752 19.9549 7.45539 19.9549 7.26167 19.9081V19.8759H7.20013V19.8437L7.01224 19.7824C6.89122 19.6888 6.7824 19.5805 6.68831 19.4601L6.56197 19.3666V19.3054L6.50043 19.2732L6.47127 19.1829H6.43564V19.1185L6.37409 19.0894V19.0282L6.31254 18.996L6.251 18.8122H6.2186L6.18621 18.6865H6.15705L6.12466 18.5351H6.1117V18.4416H6.07931V18.3803H6.04692V18.2869H6.01452V18.1934H5.98213V18.0709H5.95298V18.0387H5.98213V17.9774C6.06325 17.9823 6.14007 18.0154 6.19917 18.0709L6.23156 18.1321L6.3255 18.1644L6.38705 18.2546H6.43564L6.49719 18.3481H6.55873L6.59113 18.4093H6.65268L6.71422 18.5028H6.77577L6.80816 18.5641L6.93126 18.5963L6.96365 18.6575L7.08675 18.6865L7.11914 18.751L7.39773 18.8413V18.8735H7.45927V18.9089H7.54998V18.9412H7.61476V18.9734H7.73786V19.0024H7.8318V19.0346H7.9225V19.0637L8.17193 19.0959C8.28076 19.1416 8.3951 19.173 8.51206 19.1894C8.53798 19.2216 8.51206 19.1894 8.54446 19.2184C8.4901 19.4541 8.35061 19.6617 8.1525 19.8018H8.15897ZM16.7141 17.6422H16.6817L16.6526 17.7969H16.6202V17.8582H16.591V17.9194H16.5586L16.5295 18.0419H16.4776V18.1064H16.4452V18.1676H16.4161V18.2288H16.3837V18.2901H16.3545V18.3513L16.293 18.3836L16.2606 18.506H16.2282L16.199 18.5995L16.1375 18.6285V18.6898H16.1051L16.076 18.7832L16.0112 18.8155V18.8767L15.9496 18.9057L15.9205 18.9992L15.7974 19.0927C15.399 19.6238 14.8477 20.0218 14.2166 20.2337L13.9347 20.2627C13.3958 20.3883 12.8326 20.3661 12.3053 20.1982V20.1692L12.1823 20.137V20.108L12.0268 20.0757L11.9976 20.0145L11.8713 19.9823L11.8421 19.921H11.7806L11.7482 19.8759H11.6866L11.6186 19.7695C11.4188 19.653 11.2569 19.4818 11.1521 19.2764L11.2461 19.2474V19.2313H11.4016V19.2023H11.6186V19.17H11.8356V19.1378L12.1758 19.1088V19.0765H12.3313V19.0475H12.4544V19.0153H12.5904V18.9863H12.7459C13.1119 18.867 13.5169 18.751 13.8635 18.6156L14.1421 18.5544V18.5222H14.2101V18.4899H14.304V18.4609L14.4595 18.4287V18.3997H14.5211V18.3674H14.6118V18.3384H14.6766V18.3062H14.7673V18.2643L14.8903 18.2353V18.2031H14.9843V18.1676L15.1074 18.1354V18.1064H15.1819V18.0741L15.305 18.0419V18.0129H15.3698V17.9807H15.4605V17.942L15.6484 17.8807V17.8485H15.7099V17.8195H15.8038V17.7873L15.9885 17.726V17.6938H16.05V17.6648H16.1537V17.6326H16.2152V17.6197L16.3999 17.5552V17.5262H16.4776V17.494H16.5392V17.4585H16.6623V17.4263L16.7271 17.4585L16.7141 17.6422Z" fill="#1E1E1E"/>
</g>
<defs>
<clipPath id="clip0_82_6637">
<rect width="31" height="31" fill="white" transform="translate(0 0.5)"/>
</clipPath>
</defs>
</svg>
